<svg xmlns="http://www.w3.org/2000/svg" xmlns:xlink="http://www.w3.org/1999/xlink" xmlns:jfreesvg="http://www.jfree.org/jfreesvg/svg" width="750" height="750" text-rendering="auto" shape-rendering="auto">
<defs></defs>
<line x1="0" y1="0" x2="0" y2="500" style="stroke-width: 8.0;stroke: rgb(0,255,0);stroke-opacity: 1.0;stroke-linecap: square;" transform="matrix(1,0,0,1,200,200)" /><ellipse cx="0" cy="0" rx="40" ry="40" style="fill: rgb(255,255,0); fill-opacity: 1.0" transform="matrix(1,0,0,1,200,200)" /><ellipse cx="0" cy="0" rx="40" ry="40" style="stroke-width: 3.0;stroke: rgb(0,0,0);stroke-opacity: 1.0;stroke-linecap: square;; fill: none" transform="matrix(1,0,0,1,200,200)" /><ellipse cx="0" cy="0" rx="60" ry="10" style="fill: rgb(255,255,255); fill-opacity: 1.0" transform="matrix(1,0,0,1,305,200)" /><ellipse cx="0" cy="0" rx="60" ry="10" style="stroke-width: 3.0;stroke: rgb(0,0,0);stroke-opacity: 1.0;stroke-linecap: square;; fill: none" transform="matrix(1,0,0,1,305,200)" /><ellipse cx="0" cy="0" rx="60" ry="10" style="fill: rgb(255,255,255); fill-opacity: 1.0" transform="matrix(0.939693,0.34202,-0.34202,0.939693,298.667725,235.912115)" /><ellipse cx="0" cy="0" rx="60" ry="10" style="stroke-width: 3.0;stroke: rgb(0,0,0);stroke-opacity: 1.0;stroke-linecap: square;; fill: none" transform="matrix(0.939693,0.34202,-0.34202,0.939693,298.667725,235.912115)" /><ellipse cx="0" cy="0" rx="60" ry="10" style="fill: rgb(255,255,255); fill-opacity: 1.0" transform="matrix(0.766044,0.642788,-0.642788,0.766044,280.434667,267.492699)" /><ellipse cx="0" cy="0" rx="60" ry="10" style="stroke-width: 3.0;stroke: rgb(0,0,0);stroke-opacity: 1.0;stroke-linecap: square;; fill: none" transform="matrix(0.766044,0.642788,-0.642788,0.766044,280.434667,267.492699)" /><ellipse cx="0" cy="0" rx="60" ry="10" style="fill: rgb(255,255,255); fill-opacity: 1.0" transform="matrix(0.5,0.866025,-0.866025,0.5,252.5,290.932667)" /><ellipse cx="0" cy="0" rx="60" ry="10" style="stroke-width: 3.0;stroke: rgb(0,0,0);stroke-opacity: 1.0;stroke-linecap: square;; fill: none" transform="matrix(0.5,0.866025,-0.866025,0.5,252.5,290.932667)" /><ellipse cx="0" cy="0" rx="60" ry="10" style="fill: rgb(255,255,255); fill-opacity: 1.0" transform="matrix(0.173648,0.984808,-0.984808,0.173648,218.233059,303.404814)" /><ellipse cx="0" cy="0" rx="60" ry="10" style="stroke-width: 3.0;stroke: rgb(0,0,0);stroke-opacity: 1.0;stroke-linecap: square;; fill: none" transform="matrix(0.173648,0.984808,-0.984808,0.173648,218.233059,303.404814)" /><ellipse cx="0" cy="0" rx="60" ry="10" style="fill: rgb(255,255,255); fill-opacity: 1.0" transform="matrix(-0.173648,0.984808,-0.984808,-0.173648,181.766941,303.404814)" /><ellipse cx="0" cy="0" rx="60" ry="10" style="stroke-width: 3.0;stroke: rgb(0,0,0);stroke-opacity: 1.0;stroke-linecap: square;; fill: none" transform="matrix(-0.173648,0.984808,-0.984808,-0.173648,181.766941,303.404814)" /><ellipse cx="0" cy="0" rx="60" ry="10" style="fill: rgb(255,255,255); fill-opacity: 1.0" transform="matrix(-0.5,0.866025,-0.866025,-0.5,147.5,290.932667)" /><ellipse cx="0" cy="0" rx="60" ry="10" style="stroke-width: 3.0;stroke: rgb(0,0,0);stroke-opacity: 1.0;stroke-linecap: square;; fill: none" transform="matrix(-0.5,0.866025,-0.866025,-0.5,147.5,290.932667)" /><ellipse cx="0" cy="0" rx="60" ry="10" style="fill: rgb(255,255,255); fill-opacity: 1.0" transform="matrix(-0.766044,0.642788,-0.642788,-0.766044,119.565333,267.492699)" /><ellipse cx="0" cy="0" rx="60" ry="10" style="stroke-width: 3.0;stroke: rgb(0,0,0);stroke-opacity: 1.0;stroke-linecap: square;; fill: none" transform="matrix(-0.766044,0.642788,-0.642788,-0.766044,119.565333,267.492699)" /><ellipse cx="0" cy="0" rx="60" ry="10" style="fill: rgb(255,255,255); fill-opacity: 1.0" transform="matrix(-0.939693,0.34202,-0.34202,-0.939693,101.332275,235.912115)" /><ellipse cx="0" cy="0" rx="60" ry="10" style="stroke-width: 3.0;stroke: rgb(0,0,0);stroke-opacity: 1.0;stroke-linecap: square;; fill: none" transform="matrix(-0.939693,0.34202,-0.34202,-0.939693,101.332275,235.912115)" /><ellipse cx="0" cy="0" rx="60" ry="10" style="fill: rgb(255,255,255); fill-opacity: 1.0" transform="matrix(-1,0,0,-1,95,200)" /><ellipse cx="0" cy="0" rx="60" ry="10" style="stroke-width: 3.0;stroke: rgb(0,0,0);stroke-opacity: 1.0;stroke-linecap: square;; fill: none" transform="matrix(-1,0,0,-1,95,200)" /><ellipse cx="0" cy="0" rx="60" ry="10" style="fill: rgb(255,255,255); fill-opacity: 1.0" transform="matrix(-0.939693,-0.34202,0.34202,-0.939693,101.332275,164.087885)" /><ellipse cx="0" cy="0" rx="60" ry="10" style="stroke-width: 3.0;stroke: rgb(0,0,0);stroke-opacity: 1.0;stroke-linecap: square;; fill: none" transform="matrix(-0.939693,-0.34202,0.34202,-0.939693,101.332275,164.087885)" /><ellipse cx="0" cy="0" rx="60" ry="10" style="fill: rgb(255,255,255); fill-opacity: 1.0" transform="matrix(-0.766044,-0.642788,0.642788,-0.766044,119.565333,132.507301)" /><ellipse cx="0" cy="0" rx="60" ry="10" style="stroke-width: 3.0;stroke: rgb(0,0,0);stroke-opacity: 1.0;stroke-linecap: square;; fill: none" transform="matrix(-0.766044,-0.642788,0.642788,-0.766044,119.565333,132.507301)" /><ellipse cx="0" cy="0" rx="60" ry="10" style="fill: rgb(255,255,255); fill-opacity: 1.0" transform="matrix(-0.5,-0.866025,0.866025,-0.5,147.5,109.067333)" /><ellipse cx="0" cy="0" rx="60" ry="10" style="stroke-width: 3.0;stroke: rgb(0,0,0);stroke-opacity: 1.0;stroke-linecap: square;; fill: none" transform="matrix(-0.5,-0.866025,0.866025,-0.5,147.5,109.067333)" /><ellipse cx="0" cy="0" rx="60" ry="10" style="fill: rgb(255,255,255); fill-opacity: 1.0" transform="matrix(-0.173648,-0.984808,0.984808,-0.173648,181.766941,96.595186)" /><ellipse cx="0" cy="0" rx="60" ry="10" style="stroke-width: 3.0;stroke: rgb(0,0,0);stroke-opacity: 1.0;stroke-linecap: square;; fill: none" transform="matrix(-0.173648,-0.984808,0.984808,-0.173648,181.766941,96.595186)" /><ellipse cx="0" cy="0" rx="60" ry="10" style="fill: rgb(255,255,255); fill-opacity: 1.0" transform="matrix(0.173648,-0.984808,0.984808,0.173648,218.233059,96.595186)" /><ellipse cx="0" cy="0" rx="60" ry="10" style="stroke-width: 3.0;stroke: rgb(0,0,0);stroke-opacity: 1.0;stroke-linecap: square;; fill: none" transform="matrix(0.173648,-0.984808,0.984808,0.173648,218.233059,96.595186)" /><ellipse cx="0" cy="0" rx="60" ry="10" style="fill: rgb(255,255,255); fill-opacity: 1.0" transform="matrix(0.5,-0.866025,0.866025,0.5,252.5,109.067333)" /><ellipse cx="0" cy="0" rx="60" ry="10" style="stroke-width: 3.0;stroke: rgb(0,0,0);stroke-opacity: 1.0;stroke-linecap: square;; fill: none" transform="matrix(0.5,-0.866025,0.866025,0.5,252.5,109.067333)" /><ellipse cx="0" cy="0" rx="60" ry="10" style="fill: rgb(255,255,255); fill-opacity: 1.0" transform="matrix(0.766044,-0.642788,0.642788,0.766044,280.434667,132.507301)" /><ellipse cx="0" cy="0" rx="60" ry="10" style="stroke-width: 3.0;stroke: rgb(0,0,0);stroke-opacity: 1.0;stroke-linecap: square;; fill: none" transform="matrix(0.766044,-0.642788,0.642788,0.766044,280.434667,132.507301)" /><ellipse cx="0" cy="0" rx="60" ry="10" style="fill: rgb(255,255,255); fill-opacity: 1.0" transform="matrix(0.939693,-0.34202,0.34202,0.939693,298.667725,164.087885)" /><ellipse cx="0" cy="0" rx="60" ry="10" style="stroke-width: 3.0;stroke: rgb(0,0,0);stroke-opacity: 1.0;stroke-linecap: square;; fill: none" transform="matrix(0.939693,-0.34202,0.34202,0.939693,298.667725,164.087885)" /></svg>
