<svg xmlns="http://www.w3.org/2000/svg" xmlns:xlink="http://www.w3.org/1999/xlink" xmlns:jfreesvg="http://www.jfree.org/jfreesvg/svg" width="750" height="750" text-rendering="auto" shape-rendering="auto"><ellipse cx="0"  cy="0"  rx="40"  ry="40"  stroke="rgb(0,0,0)"  fill="none" transform=rotate"(20)" /><ellipse cx="0"  cy="0"  rx="60"  ry="10"  stroke="rgb(0,0,0)"  fill="none" transform=rotate"(20)" /><ellipse cx="0"  cy="0"  rx="60"  ry="10"  stroke="rgb(0,0,0)"  fill="none" transform=rotate"(20)" /><ellipse cx="0"  cy="0"  rx="60"  ry="10"  stroke="rgb(0,0,0)"  fill="none" transform=rotate"(20)" /><ellipse cx="0"  cy="0"  rx="60"  ry="10"  stroke="rgb(0,0,0)"  fill="none" transform=rotate"(20)" /><ellipse cx="0"  cy="0"  rx="60"  ry="10"  stroke="rgb(0,0,0)"  fill="none" transform=rotate"(20)" /><ellipse cx="0"  cy="0"  rx="60"  ry="10"  stroke="rgb(0,0,0)"  fill="none" transform=rotate"(20)" /><ellipse cx="0"  cy="0"  rx="60"  ry="10"  stroke="rgb(0,0,0)"  fill="none" transform=rotate"(20)" /><ellipse cx="0"  cy="0"  rx="60"  ry="10"  stroke="rgb(0,0,0)"  fill="none" transform=rotate"(20)" /><ellipse cx="0"  cy="0"  rx="60"  ry="10"  stroke="rgb(0,0,0)"  fill="none" transform=rotate"(20)" /><ellipse cx="0"  cy="0"  rx="60"  ry="10"  stroke="rgb(0,0,0)"  fill="none" transform=rotate"(20)" /><ellipse cx="0"  cy="0"  rx="60"  ry="10"  stroke="rgb(0,0,0)"  fill="none" transform=rotate"(20)" /><ellipse cx="0"  cy="0"  rx="60"  ry="10"  stroke="rgb(0,0,0)"  fill="none" transform=rotate"(20)" /><ellipse cx="0"  cy="0"  rx="60"  ry="10"  stroke="rgb(0,0,0)"  fill="none" transform=rotate"(20)" /><ellipse cx="0"  cy="0"  rx="60"  ry="10"  stroke="rgb(0,0,0)"  fill="none" transform=rotate"(20)" /><ellipse cx="0"  cy="0"  rx="60"  ry="10"  stroke="rgb(0,0,0)"  fill="none" transform=rotate"(20)" /><ellipse cx="0"  cy="0"  rx="60"  ry="10"  stroke="rgb(0,0,0)"  fill="none" transform=rotate"(20)" /><ellipse cx="0"  cy="0"  rx="60"  ry="10"  stroke="rgb(0,0,0)"  fill="none" transform=rotate"(20)" /><ellipse cx="0"  cy="0"  rx="60"  ry="10"  stroke="rgb(0,0,0)"  fill="none" transform=rotate"(20)" /></svg>
